<?xml version="1.0" encoding="UTF-8" standalone="no"?><!DOCTYPE svg PUBLIC "-//W3C//DTD SVG 1.1//EN" "http://www.w3.org/Graphics/SVG/1.1/DTD/svg11.dtd"><svg width="100%" height="100%" viewBox="0 0 332 332" version="1.1" xmlns="http://www.w3.org/2000/svg" xmlns:xlink="http://www.w3.org/1999/xlink" xml:space="preserve" xmlns:serif="http://www.serif.com/" style="fill-rule:evenodd;clip-rule:evenodd;stroke-linejoin:round;stroke-miterlimit:2;"><path d="M308.518,212.589c25.869,-25.87 25.869,-67.875 0,-93.744l-95.929,-95.929c-25.87,-25.869 -67.875,-25.869 -93.744,0l-95.929,95.929c-25.869,25.869 -25.869,67.874 0,93.744l95.929,95.929c25.869,25.869 67.874,25.869 93.744,0l95.929,-95.929Z" style="fill:#ff6b6b;"/><path d="M187.324,103.87c0,11.932 -9.675,21.607 -21.607,21.607c-11.936,0 -21.611,-9.675 -21.611,-21.607c0,-11.936 9.675,-21.611 21.611,-21.611c11.932,0 21.607,9.675 21.607,21.611Z" style="fill:#fff;fill-rule:nonzero;"/><path d="M187.324,227.565c0,11.932 -9.675,21.607 -21.607,21.607c-11.936,0 -21.611,-9.675 -21.611,-21.607c0,-11.936 9.675,-21.611 21.611,-21.611c11.932,0 21.607,9.675 21.607,21.611Z" style="fill:#fff;fill-rule:nonzero;"/><path d="M227.566,187.323c-11.936,0 -21.611,-9.676 -21.611,-21.608c0,-11.935 9.675,-21.61 21.611,-21.61c11.932,0 21.607,9.675 21.607,21.61c0,11.932 -9.675,21.608 -21.607,21.608Z" style="fill:#fff;fill-rule:nonzero;"/><path d="M103.871,187.323c-11.932,0 -21.607,-9.676 -21.607,-21.608c0,-11.935 9.675,-21.61 21.607,-21.61c11.936,0 21.611,9.675 21.611,21.61c0,11.932 -9.675,21.608 -21.611,21.608Z" style="fill:#fff;fill-rule:nonzero;"/><path d="M170.721,108.877l-61.846,61.849l-10.011,-10.011l61.849,-61.849l10.008,10.011Z" style="fill:#fff;"/><path d="M170.721,222.557l-61.846,-61.845l-10.011,10.011l61.849,61.845l10.008,-10.011Z" style="fill:#fff;"/><path d="M160.713,108.877l61.846,61.849l10.011,-10.011l-61.846,-61.849l-10.011,10.011Z" style="fill:#fff;"/><rect x="158.638" y="103.873" width="14.157" height="121.459" style="fill:#fff;"/><rect x="105.356" y="157.897" width="46.945" height="14.157" style="fill:#fff;"/><rect x="179.126" y="157.897" width="46.941" height="14.157" style="fill:#fff;"/></svg>